<svg width="356" height="258" viewBox="0 0 356 258" fill="none" xmlns="http://www.w3.org/2000/svg">
    <path d="M17.8 246.5C14.7333 246.5 12.0667 246 9.8 245C7.53333 244 5.76667 242.5 4.5 240.5C3.23333 238.467 2.53333 235.933 2.4 232.9C2.36667 231.467 2.35 230.033 2.35 228.6C2.35 227.167 2.36667 225.717 2.4 224.25C2.53333 221.25 3.23333 218.733 4.5 216.7C5.8 214.633 7.58333 213.083 9.85 212.05C12.1167 211.017 14.7667 210.5 17.8 210.5C20.8 210.5 23.4333 211.017 25.7 212.05C28 213.083 29.8 214.633 31.1 216.7C32.4 218.733 33.1 221.25 33.2 224.25C33.2667 225.717 33.3 227.167 33.3 228.6C33.3 230.033 33.2667 231.467 33.2 232.9C33.0667 235.933 32.3667 238.467 31.1 240.5C29.8333 242.5 28.0667 244 25.8 245C23.5333 246 20.8667 246.5 17.8 246.5ZM17.8 239.3C19.5667 239.3 21 238.767 22.1 237.7C23.2333 236.633 23.8333 234.933 23.9 232.6C23.9667 231.133 24 229.75 24 228.45C24 227.15 23.9667 225.8 23.9 224.4C23.8333 222.833 23.5333 221.567 23 220.6C22.5 219.6 21.8 218.867 20.9 218.4C20 217.933 18.9667 217.7 17.8 217.7C16.6667 217.7 15.65 217.933 14.75 218.4C13.85 218.867 13.1333 219.6 12.6 220.6C12.0667 221.567 11.7667 222.833 11.7 224.4C11.6667 225.8 11.65 227.15 11.65 228.45C11.65 229.75 11.6667 231.133 11.7 232.6C11.8 234.933 12.4 236.633 13.5 237.7C14.6 238.767 16.0333 239.3 17.8 239.3ZM39.7957 255.5C39.429 255.5 39.129 255.383 38.8957 255.15C38.6624 254.917 38.5457 254.617 38.5457 254.25V221.25C38.5457 220.883 38.6624 220.583 38.8957 220.35C39.129 220.117 39.429 220 39.7957 220H45.4457C45.779 220 46.0624 220.117 46.2957 220.35C46.5624 220.583 46.6957 220.883 46.6957 221.25V223.1C47.4624 222.067 48.479 221.217 49.7457 220.55C51.0124 219.85 52.579 219.5 54.4457 219.5C56.1124 219.5 57.579 219.767 58.8457 220.3C60.1124 220.8 61.1957 221.55 62.0957 222.55C62.9957 223.55 63.6957 224.767 64.1957 226.2C64.729 227.633 65.029 229.283 65.0957 231.15C65.129 231.817 65.1457 232.433 65.1457 233C65.1457 233.567 65.129 234.183 65.0957 234.85C65.029 236.65 64.7457 238.267 64.2457 239.7C63.7457 241.133 63.0457 242.35 62.1457 243.35C61.2457 244.35 60.1457 245.133 58.8457 245.7C57.579 246.233 56.1124 246.5 54.4457 246.5C52.8124 246.5 51.379 246.217 50.1457 245.65C48.9457 245.05 47.9457 244.217 47.1457 243.15V254.25C47.1457 254.617 47.029 254.917 46.7957 255.15C46.5624 255.383 46.2624 255.5 45.8957 255.5H39.7957ZM51.7457 239.8C52.879 239.8 53.7624 239.567 54.3957 239.1C55.029 238.633 55.479 238 55.7457 237.2C56.0457 236.4 56.229 235.517 56.2957 234.55C56.3624 233.517 56.3624 232.483 56.2957 231.45C56.229 230.483 56.0457 229.6 55.7457 228.8C55.479 228 55.029 227.367 54.3957 226.9C53.7624 226.433 52.879 226.2 51.7457 226.2C50.6457 226.2 49.7624 226.45 49.0957 226.95C48.429 227.417 47.9457 228.033 47.6457 228.8C47.3457 229.567 47.179 230.4 47.1457 231.3C47.1124 231.933 47.0957 232.55 47.0957 233.15C47.0957 233.75 47.1124 234.383 47.1457 235.05C47.179 235.883 47.3624 236.667 47.6957 237.4C48.029 238.1 48.529 238.683 49.1957 239.15C49.8624 239.583 50.7124 239.8 51.7457 239.8ZM71.3387 246C70.972 246 70.672 245.883 70.4387 245.65C70.2053 245.417 70.0887 245.117 70.0887 244.75V221.25C70.0887 220.883 70.2053 220.583 70.4387 220.35C70.672 220.117 70.972 220 71.3387 220H88.0387C88.372 220 88.6553 220.117 88.8887 220.35C89.1553 220.583 89.2887 220.883 89.2887 221.25V225.3C89.2887 225.667 89.1553 225.967 88.8887 226.2C88.6553 226.433 88.372 226.55 88.0387 226.55H78.4887V244.75C78.4887 245.117 78.3553 245.417 78.0887 245.65C77.8553 245.883 77.572 246 77.2387 246H71.3387ZM100.838 246.5C99.0379 246.5 97.4212 246.167 95.9879 245.5C94.5879 244.8 93.4712 243.867 92.6379 242.7C91.8046 241.533 91.3879 240.217 91.3879 238.75C91.3879 236.383 92.3546 234.517 94.2879 233.15C96.2212 231.75 98.7879 230.8 101.988 230.3L108.238 229.35V228.65C108.238 227.45 107.988 226.533 107.488 225.9C106.988 225.267 106.071 224.95 104.738 224.95C103.805 224.95 103.038 225.133 102.438 225.5C101.871 225.867 101.421 226.367 101.088 227C100.788 227.433 100.371 227.65 99.8379 227.65H94.2379C93.8712 227.65 93.5879 227.55 93.3879 227.35C93.1879 227.117 93.1046 226.85 93.1379 226.55C93.1379 225.95 93.3546 225.267 93.7879 224.5C94.2546 223.7 94.9546 222.917 95.8879 222.15C96.8212 221.383 98.0212 220.75 99.4879 220.25C100.955 219.75 102.721 219.5 104.788 219.5C106.955 219.5 108.805 219.75 110.338 220.25C111.871 220.75 113.105 221.45 114.038 222.35C115.005 223.25 115.721 224.317 116.188 225.55C116.655 226.75 116.888 228.083 116.888 229.55V244.75C116.888 245.117 116.755 245.417 116.488 245.65C116.255 245.883 115.971 246 115.638 246H109.838C109.471 246 109.171 245.883 108.938 245.65C108.705 245.417 108.588 245.117 108.588 244.75V243C108.155 243.633 107.571 244.217 106.838 244.75C106.105 245.283 105.238 245.7 104.238 246C103.271 246.333 102.138 246.5 100.838 246.5ZM103.188 240.8C104.155 240.8 105.021 240.6 105.788 240.2C106.588 239.767 107.205 239.117 107.638 238.25C108.105 237.35 108.338 236.233 108.338 234.9V234.2L104.088 234.95C102.521 235.217 101.371 235.633 100.638 236.2C99.9379 236.733 99.5879 237.367 99.5879 238.1C99.5879 238.667 99.7546 239.15 100.088 239.55C100.421 239.95 100.855 240.267 101.388 240.5C101.921 240.7 102.521 240.8 103.188 240.8ZM123.78 246C123.413 246 123.113 245.883 122.88 245.65C122.647 245.417 122.53 245.117 122.53 244.75V221.25C122.53 220.883 122.647 220.583 122.88 220.35C123.113 220.117 123.413 220 123.78 220H129.68C130.013 220 130.297 220.117 130.53 220.35C130.797 220.583 130.93 220.883 130.93 221.25V229.55H139.93V221.25C139.93 220.883 140.047 220.583 140.28 220.35C140.513 220.117 140.813 220 141.18 220H147.08C147.413 220 147.697 220.117 147.93 220.35C148.197 220.583 148.33 220.883 148.33 221.25V244.75C148.33 245.117 148.197 245.417 147.93 245.65C147.697 245.883 147.413 246 147.08 246H141.18C140.813 246 140.513 245.883 140.28 245.65C140.047 245.417 139.93 245.117 139.93 244.75V236.1H130.93V244.75C130.93 245.117 130.797 245.417 130.53 245.65C130.297 245.883 130.013 246 129.68 246H123.78ZM155.665 246C155.298 246 154.998 245.883 154.765 245.65C154.532 245.417 154.415 245.117 154.415 244.75V221.25C154.415 220.883 154.532 220.583 154.765 220.35C154.998 220.117 155.298 220 155.665 220H161.565C161.898 220 162.182 220.117 162.415 220.35C162.682 220.583 162.815 220.883 162.815 221.25V244.75C162.815 245.117 162.682 245.417 162.415 245.65C162.182 245.883 161.898 246 161.565 246H155.665ZM155.615 216.25C155.248 216.25 154.948 216.133 154.715 215.9C154.482 215.667 154.365 215.367 154.365 215V210.55C154.365 210.183 154.482 209.883 154.715 209.65C154.948 209.383 155.248 209.25 155.615 209.25H161.565C161.932 209.25 162.232 209.383 162.465 209.65C162.732 209.883 162.865 210.183 162.865 210.55V215C162.865 215.367 162.732 215.667 162.465 215.9C162.232 216.133 161.932 216.25 161.565 216.25H155.615ZM179.573 246.5C177.239 246.5 175.306 246.25 173.773 245.75C172.273 245.25 171.073 244.6 170.173 243.8C169.273 243 168.623 242.167 168.223 241.3C167.856 240.4 167.623 239.6 167.523 238.9C167.489 238.633 167.573 238.417 167.773 238.25C167.973 238.083 168.189 238 168.423 238H174.223C174.589 238 174.856 238.067 175.023 238.2C175.223 238.333 175.389 238.517 175.523 238.75C175.823 239.417 176.306 239.9 176.973 240.2C177.673 240.5 178.573 240.65 179.673 240.65C180.439 240.65 181.106 240.55 181.673 240.35C182.273 240.15 182.723 239.85 183.023 239.45C183.323 239.05 183.473 238.55 183.473 237.95C183.473 237.117 183.223 236.483 182.723 236.05C182.223 235.583 181.356 235.35 180.123 235.35H177.323C177.023 235.35 176.773 235.25 176.573 235.05C176.373 234.817 176.273 234.55 176.273 234.25V231.4C176.273 231.1 176.373 230.85 176.573 230.65C176.773 230.417 177.023 230.3 177.323 230.3H180.023C181.056 230.3 181.806 230.117 182.273 229.75C182.739 229.383 182.973 228.817 182.973 228.05C182.973 227.583 182.856 227.15 182.623 226.75C182.389 226.35 182.023 226.033 181.523 225.8C181.023 225.533 180.339 225.4 179.473 225.4C178.239 225.4 177.356 225.583 176.823 225.95C176.323 226.283 175.906 226.817 175.573 227.55C175.439 227.783 175.273 227.967 175.073 228.1C174.906 228.233 174.639 228.3 174.273 228.3H168.673C168.406 228.3 168.189 228.217 168.023 228.05C167.856 227.883 167.773 227.667 167.773 227.4C167.873 226.533 168.123 225.65 168.523 224.75C168.956 223.817 169.623 222.95 170.523 222.15C171.423 221.35 172.606 220.717 174.073 220.25C175.539 219.75 177.373 219.5 179.573 219.5C182.406 219.5 184.656 219.85 186.323 220.55C188.023 221.217 189.239 222.117 189.973 223.25C190.706 224.35 191.073 225.567 191.073 226.9C191.073 228.033 190.839 229.067 190.373 230C189.906 230.933 189.073 231.7 187.873 232.3C189.373 232.867 190.406 233.733 190.973 234.9C191.539 236.067 191.823 237.317 191.823 238.65C191.823 240.25 191.323 241.633 190.323 242.8C189.356 243.967 187.956 244.883 186.123 245.55C184.289 246.183 182.106 246.5 179.573 246.5ZM204.354 246.5C202.554 246.5 200.937 246.167 199.504 245.5C198.104 244.8 196.987 243.867 196.154 242.7C195.32 241.533 194.904 240.217 194.904 238.75C194.904 236.383 195.87 234.517 197.804 233.15C199.737 231.75 202.304 230.8 205.504 230.3L211.754 229.35V228.65C211.754 227.45 211.504 226.533 211.004 225.9C210.504 225.267 209.587 224.95 208.254 224.95C207.32 224.95 206.554 225.133 205.954 225.5C205.387 225.867 204.937 226.367 204.604 227C204.304 227.433 203.887 227.65 203.354 227.65H197.754C197.387 227.65 197.104 227.55 196.904 227.35C196.704 227.117 196.62 226.85 196.654 226.55C196.654 225.95 196.87 225.267 197.304 224.5C197.77 223.7 198.47 222.917 199.404 222.15C200.337 221.383 201.537 220.75 203.004 220.25C204.47 219.75 206.237 219.5 208.304 219.5C210.47 219.5 212.32 219.75 213.854 220.25C215.387 220.75 216.62 221.45 217.554 222.35C218.52 223.25 219.237 224.317 219.704 225.55C220.17 226.75 220.404 228.083 220.404 229.55V244.75C220.404 245.117 220.27 245.417 220.004 245.65C219.77 245.883 219.487 246 219.154 246H213.354C212.987 246 212.687 245.883 212.454 245.65C212.22 245.417 212.104 245.117 212.104 244.75V243C211.67 243.633 211.087 244.217 210.354 244.75C209.62 245.283 208.754 245.7 207.754 246C206.787 246.333 205.654 246.5 204.354 246.5ZM206.704 240.8C207.67 240.8 208.537 240.6 209.304 240.2C210.104 239.767 210.72 239.117 211.154 238.25C211.62 237.35 211.854 236.233 211.854 234.9V234.2L207.604 234.95C206.037 235.217 204.887 235.633 204.154 236.2C203.454 236.733 203.104 237.367 203.104 238.1C203.104 238.667 203.27 239.15 203.604 239.55C203.937 239.95 204.37 240.267 204.904 240.5C205.437 240.7 206.037 240.8 206.704 240.8ZM247.696 251.9C247.329 251.9 247.029 251.767 246.796 251.5C246.562 251.267 246.446 250.967 246.446 250.6V246H227.296C226.929 246 226.629 245.883 226.396 245.65C226.162 245.417 226.046 245.117 226.046 244.75V221.25C226.046 220.883 226.162 220.583 226.396 220.35C226.629 220.117 226.929 220 227.296 220H233.196C233.529 220 233.812 220.117 234.046 220.35C234.312 220.583 234.446 220.883 234.446 221.25V239.45H243.046V221.25C243.046 220.883 243.162 220.583 243.396 220.35C243.662 220.117 243.962 220 244.296 220H250.196C250.562 220 250.862 220.117 251.096 220.35C251.329 220.583 251.446 220.883 251.446 221.25V239.45H253.596C253.962 239.45 254.262 239.567 254.496 239.8C254.729 240.033 254.846 240.333 254.846 240.7V250.6C254.846 250.967 254.729 251.267 254.496 251.5C254.262 251.767 253.962 251.9 253.596 251.9H247.696ZM260.108 246C259.742 246 259.442 245.883 259.208 245.65C258.975 245.417 258.858 245.117 258.858 244.75V221.25C258.858 220.883 258.975 220.583 259.208 220.35C259.442 220.117 259.742 220 260.108 220H266.008C266.342 220 266.625 220.117 266.858 220.35C267.125 220.583 267.258 220.883 267.258 221.25V244.75C267.258 245.117 267.125 245.417 266.858 245.65C266.625 245.883 266.342 246 266.008 246H260.108ZM260.058 216.25C259.692 216.25 259.392 216.133 259.158 215.9C258.925 215.667 258.808 215.367 258.808 215V210.55C258.808 210.183 258.925 209.883 259.158 209.65C259.392 209.383 259.692 209.25 260.058 209.25H266.008C266.375 209.25 266.675 209.383 266.908 209.65C267.175 209.883 267.308 210.183 267.308 210.55V215C267.308 215.367 267.175 215.667 266.908 215.9C266.675 216.133 266.375 216.25 266.008 216.25H260.058ZM289.866 246C289.499 246 289.199 245.883 288.966 245.65C288.733 245.417 288.616 245.117 288.616 244.75V237.65H284.416V237.4C280.883 237.4 278.183 236.633 276.316 235.1C274.449 233.533 273.516 231.417 273.516 228.75C273.516 225.883 274.449 223.717 276.316 222.25C278.183 220.75 280.783 220 284.116 220H295.966C296.333 220 296.633 220.117 296.866 220.35C297.099 220.583 297.216 220.883 297.216 221.25V244.75C297.216 245.117 297.099 245.417 296.866 245.65C296.633 245.883 296.333 246 295.966 246H289.866ZM273.716 246C273.383 246 273.116 245.9 272.916 245.7C272.716 245.5 272.616 245.267 272.616 245C272.616 244.9 272.633 244.8 272.666 244.7C272.733 244.567 272.799 244.433 272.866 244.3L278.216 235.5L285.516 236.75L280.866 245.25C280.733 245.45 280.566 245.633 280.366 245.8C280.166 245.933 279.933 246 279.666 246H273.716ZM284.416 231.9H288.766V225.75H284.616C283.383 225.75 282.466 225.983 281.866 226.45C281.299 226.917 281.016 227.683 281.016 228.75C281.016 229.683 281.283 230.45 281.816 231.05C282.383 231.617 283.249 231.9 284.416 231.9Z" fill="url(#paint0_linear_1559_5)"/>
    <path d="M318.75 246C318.417 246 318.117 245.883 317.85 245.65C317.617 245.417 317.5 245.117 317.5 244.75V212.25C317.5 211.883 317.617 211.583 317.85 211.35C318.117 211.117 318.417 211 318.75 211H324.15C324.683 211 325.083 211.15 325.35 211.45C325.65 211.717 325.833 211.933 325.9 212.1L334.7 227.9L343.5 212.1C343.6 211.933 343.767 211.717 344 211.45C344.267 211.15 344.683 211 345.25 211H350.6C350.967 211 351.267 211.117 351.5 211.35C351.767 211.583 351.9 211.883 351.9 212.25V244.75C351.9 245.117 351.767 245.417 351.5 245.65C351.267 245.883 350.967 246 350.6 246H344.65C344.283 246 343.967 245.883 343.7 245.65C343.467 245.417 343.35 245.117 343.35 244.75V226L337.7 236.45C337.567 236.75 337.367 237.017 337.1 237.25C336.833 237.483 336.467 237.6 336 237.6H333.4C332.933 237.6 332.567 237.483 332.3 237.25C332.033 237.017 331.817 236.75 331.65 236.45L326 226V244.75C326 245.117 325.883 245.417 325.65 245.65C325.417 245.883 325.117 246 324.75 246H318.75Z" fill="url(#paint1_linear_1559_5)"/>
    <rect width="5.19329" height="15.5799" transform="matrix(0.707107 -0.707106 0.707107 0.707106 150.403 17.0259)" fill="#B3271A"/>
    <rect width="5.19329" height="15.5799" transform="matrix(-0.707107 -0.707106 0.707107 -0.707106 167.43 36.9453)" fill="#F3D74B"/>
    <rect width="5.19329" height="15.5799" transform="matrix(-0.707107 0.707106 -0.707107 -0.707106 187.349 19.9187)" fill="#375BB6"/>
    <rect width="5.19329" height="15.5799" transform="matrix(0.707107 0.707106 -0.707107 0.707106 170.323 -0.000488281)" fill="black"/>
    <path d="M253.318 166L253.318 174.415L210.123 174.415L210.123 166L253.318 166Z" fill="url(#paint2_linear_1559_5)"/>
    <rect x="253.318" y="152.537" width="8.41464" height="43.1951" transform="rotate(90 253.318 152.537)" fill="url(#paint3_linear_1559_5)"/>
    <rect x="209.001" y="146.927" width="7.85366" height="33.0976" fill="url(#paint4_linear_1559_5)"/>
    <path d="M236.489 142.439H244.343V180.024H236.489V142.439Z" fill="url(#paint5_linear_1559_5)"/>
    <path d="M223.025 143H230.879V180.585H223.025V143Z" fill="url(#paint6_linear_1559_5)"/>
    <rect x="250.513" y="146.927" width="7.85366" height="33.0976" fill="url(#paint7_linear_1559_5)"/>
    <path d="M258.367 180.024L258.367 189L209.001 189L209.001 180.024L258.367 180.024Z" fill="url(#paint8_linear_1559_5)"/>
    <path d="M253.318 124.488L253.318 132.902L210.123 132.902L210.123 124.488L253.318 124.488Z" fill="url(#paint9_linear_1559_5)"/>
    <rect x="253.318" y="111.024" width="8.41464" height="43.1951" transform="rotate(90 253.318 111.024)" fill="url(#paint10_linear_1559_5)"/>
    <rect x="209.001" y="105.415" width="7.85366" height="33.0976" fill="url(#paint11_linear_1559_5)"/>
    <path d="M236.489 100.927H244.343V138.512H236.489V100.927Z" fill="url(#paint12_linear_1559_5)"/>
    <path d="M223.025 101.488H230.879V139.073H223.025V101.488Z" fill="url(#paint13_linear_1559_5)"/>
    <rect x="250.513" y="105.415" width="7.85366" height="33.0976" fill="url(#paint14_linear_1559_5)"/>
    <path d="M258.367 97L258.367 105.976L209.001 105.976L209.001 97L258.367 97Z" fill="url(#paint15_linear_1559_5)"/>
    <path d="M258.367 138.512L258.367 147.488L209.001 147.488L209.001 138.512L258.367 138.512Z" fill="url(#paint16_linear_1559_5)"/>
    <rect x="137" y="189" width="95" height="52" transform="rotate(-180 137 189)" fill="url(#paint17_linear_1559_5)"/>
    <ellipse cx="89.5" cy="136.5" rx="47.5" ry="28.5" fill="url(#paint18_linear_1559_5)"/>
    <rect x="111.473" y="82.553" width="20.8873" height="83.5623" fill="url(#paint19_linear_1559_5)"/>
    <path d="M174.056 63.6677H194.943V166.115H174.056V63.6677Z" fill="url(#paint20_linear_1559_5)"/>
    <path d="M142.726 63.668H163.613V166.115H142.726V63.668Z" fill="url(#paint21_linear_1559_5)"/>
    <path d="M236.001 166L236.001 178L101.001 178L101.001 166L236.001 166Z" fill="url(#paint22_linear_1559_5)"/>
    <path d="M244.001 178L244.001 189L94.001 189L94.001 178L244.001 178Z" fill="url(#paint23_linear_1559_5)"/>
    <path d="M236.365 68.7488L236.365 82.5419L101.39 82.5419L101.39 68.7488L236.365 68.7488Z" fill="url(#paint24_linear_1559_5)"/>
    <path d="M218.385 53.4778L218.385 68.7487L119.37 68.7487L119.37 53.4778L218.385 53.4778Z" fill="url(#paint25_linear_1559_5)"/>
    <path d="M208.779 47.8125L208.779 53.4775L129.223 53.4775L129.223 47.8125L208.779 47.8125Z" fill="url(#paint26_linear_1559_5)"/>
    <rect x="205.396" y="82.553" width="20.8873" height="83.5623" fill="url(#paint27_linear_1559_5)"/>
    <path d="M278.001 32L279.653 36.9656H285.001L280.675 40.0344L282.327 45L278.001 41.9311L273.675 45L275.327 40.0344L271.001 36.9656H276.349L278.001 32Z" fill="url(#paint28_linear_1559_5)"/>
    <path d="M278.001 42L314.001 189H242.001L278.001 42Z" fill="url(#paint29_linear_1559_5)"/>
    <defs>
        <linearGradient id="paint0_linear_1559_5" x1="0" y1="228.5" x2="301" y2="228.5" gradientUnits="userSpaceOnUse">
            <stop/>
            <stop offset="1" stop-color="#666666"/>
        </linearGradient>
        <linearGradient id="paint1_linear_1559_5" x1="314" y1="228.5" x2="356" y2="228.5" gradientUnits="userSpaceOnUse">
            <stop stop-color="#666666"/>
            <stop offset="1"/>
        </linearGradient>
        <linearGradient id="paint2_linear_1559_5" x1="253.318" y1="169.085" x2="210.123" y2="169.085" gradientUnits="userSpaceOnUse">
            <stop stop-color="#375BB6"/>
            <stop offset="1" stop-color="#5384FF"/>
        </linearGradient>
        <linearGradient id="paint3_linear_1559_5" x1="257.526" y1="152.537" x2="257.526" y2="195.732" gradientUnits="userSpaceOnUse">
            <stop stop-color="#375BB6"/>
            <stop offset="1" stop-color="#5384FF"/>
        </linearGradient>
        <linearGradient id="paint4_linear_1559_5" x1="212.928" y1="146.927" x2="212.928" y2="180.024" gradientUnits="userSpaceOnUse">
            <stop stop-color="#375BB6"/>
            <stop offset="1" stop-color="#5384FF"/>
        </linearGradient>
        <linearGradient id="paint5_linear_1559_5" x1="240.416" y1="142.439" x2="240.416" y2="180.024" gradientUnits="userSpaceOnUse">
            <stop stop-color="#375BB6"/>
            <stop offset="1" stop-color="#5384FF"/>
        </linearGradient>
        <linearGradient id="paint6_linear_1559_5" x1="226.952" y1="143" x2="226.952" y2="180.585" gradientUnits="userSpaceOnUse">
            <stop stop-color="#375BB6"/>
            <stop offset="1" stop-color="#5384FF"/>
        </linearGradient>
        <linearGradient id="paint7_linear_1559_5" x1="254.44" y1="146.927" x2="254.44" y2="180.024" gradientUnits="userSpaceOnUse">
            <stop stop-color="#375BB6"/>
            <stop offset="1" stop-color="#5384FF"/>
        </linearGradient>
        <linearGradient id="paint8_linear_1559_5" x1="258.367" y1="184.512" x2="209.001" y2="184.512" gradientUnits="userSpaceOnUse">
            <stop stop-color="#375BB6"/>
            <stop offset="1" stop-color="#5384FF"/>
        </linearGradient>
        <linearGradient id="paint9_linear_1559_5" x1="253.318" y1="127.573" x2="210.123" y2="127.573" gradientUnits="userSpaceOnUse">
            <stop stop-color="#375BB6"/>
            <stop offset="1" stop-color="#5384FF"/>
        </linearGradient>
        <linearGradient id="paint10_linear_1559_5" x1="257.526" y1="111.024" x2="257.526" y2="154.22" gradientUnits="userSpaceOnUse">
            <stop stop-color="#375BB6"/>
            <stop offset="1" stop-color="#5384FF"/>
        </linearGradient>
        <linearGradient id="paint11_linear_1559_5" x1="212.928" y1="105.415" x2="212.928" y2="138.512" gradientUnits="userSpaceOnUse">
            <stop stop-color="#375BB6"/>
            <stop offset="1" stop-color="#5384FF"/>
        </linearGradient>
        <linearGradient id="paint12_linear_1559_5" x1="240.416" y1="100.927" x2="240.416" y2="138.512" gradientUnits="userSpaceOnUse">
            <stop stop-color="#375BB6"/>
            <stop offset="1" stop-color="#5384FF"/>
        </linearGradient>
        <linearGradient id="paint13_linear_1559_5" x1="226.952" y1="101.488" x2="226.952" y2="139.073" gradientUnits="userSpaceOnUse">
            <stop stop-color="#375BB6"/>
            <stop offset="1" stop-color="#5384FF"/>
        </linearGradient>
        <linearGradient id="paint14_linear_1559_5" x1="254.44" y1="105.415" x2="254.44" y2="138.512" gradientUnits="userSpaceOnUse">
            <stop stop-color="#375BB6"/>
            <stop offset="1" stop-color="#5384FF"/>
        </linearGradient>
        <linearGradient id="paint15_linear_1559_5" x1="258.367" y1="101.488" x2="209.001" y2="101.488" gradientUnits="userSpaceOnUse">
            <stop stop-color="#375BB6"/>
            <stop offset="1" stop-color="#5384FF"/>
        </linearGradient>
        <linearGradient id="paint16_linear_1559_5" x1="258.367" y1="143" x2="209.001" y2="143" gradientUnits="userSpaceOnUse">
            <stop stop-color="#375BB6"/>
            <stop offset="1" stop-color="#5384FF"/>
        </linearGradient>
        <linearGradient id="paint17_linear_1559_5" x1="184.5" y1="189" x2="184.5" y2="241" gradientUnits="userSpaceOnUse">
            <stop stop-color="#B3271A"/>
            <stop offset="1" stop-color="#FF5E4F"/>
        </linearGradient>
        <linearGradient id="paint18_linear_1559_5" x1="89.5" y1="108" x2="89.5" y2="165" gradientUnits="userSpaceOnUse">
            <stop stop-color="#B3271A"/>
            <stop offset="1" stop-color="#FF5E4F"/>
        </linearGradient>
        <linearGradient id="paint19_linear_1559_5" x1="121.916" y1="82.553" x2="121.916" y2="166.115" gradientUnits="userSpaceOnUse">
            <stop/>
            <stop offset="1" stop-color="#666666"/>
        </linearGradient>
        <linearGradient id="paint20_linear_1559_5" x1="184.499" y1="63.6677" x2="184.499" y2="166.115" gradientUnits="userSpaceOnUse">
            <stop/>
            <stop offset="1" stop-color="#666666"/>
        </linearGradient>
        <linearGradient id="paint21_linear_1559_5" x1="153.169" y1="63.668" x2="153.169" y2="166.115" gradientUnits="userSpaceOnUse">
            <stop/>
            <stop offset="1" stop-color="#666666"/>
        </linearGradient>
        <linearGradient id="paint22_linear_1559_5" x1="236.001" y1="172" x2="101.001" y2="172" gradientUnits="userSpaceOnUse">
            <stop/>
            <stop offset="1" stop-color="#666666"/>
        </linearGradient>
        <linearGradient id="paint23_linear_1559_5" x1="244.001" y1="183.5" x2="94.001" y2="183.5" gradientUnits="userSpaceOnUse">
            <stop/>
            <stop offset="1" stop-color="#666666"/>
        </linearGradient>
        <linearGradient id="paint24_linear_1559_5" x1="236.365" y1="75.6453" x2="101.39" y2="75.6453" gradientUnits="userSpaceOnUse">
            <stop/>
            <stop offset="1" stop-color="#666666"/>
        </linearGradient>
        <linearGradient id="paint25_linear_1559_5" x1="218.385" y1="61.1132" x2="119.37" y2="61.1132" gradientUnits="userSpaceOnUse">
            <stop/>
            <stop offset="1" stop-color="#666666"/>
        </linearGradient>
        <linearGradient id="paint26_linear_1559_5" x1="208.779" y1="50.645" x2="129.223" y2="50.645" gradientUnits="userSpaceOnUse">
            <stop/>
            <stop offset="1" stop-color="#666666"/>
        </linearGradient>
        <linearGradient id="paint27_linear_1559_5" x1="215.84" y1="82.553" x2="215.84" y2="166.115" gradientUnits="userSpaceOnUse">
            <stop/>
            <stop offset="1" stop-color="#666666"/>
        </linearGradient>
        <linearGradient id="paint28_linear_1559_5" x1="278.001" y1="32" x2="278.001" y2="46.3724" gradientUnits="userSpaceOnUse">
            <stop stop-color="#F3D74B"/>
            <stop offset="1" stop-color="#FFF6C7"/>
        </linearGradient>
        <linearGradient id="paint29_linear_1559_5" x1="278.001" y1="42" x2="278.001" y2="189" gradientUnits="userSpaceOnUse">
            <stop stop-color="#FFF7CD"/>
            <stop offset="0.505" stop-color="#F9E78B"/>
            <stop offset="1" stop-color="#F3D74B"/>
        </linearGradient>
    </defs>
</svg>
