<svg viewBox="0 0 272 189" fill="none" xmlns="http://www.w3.org/2000/svg">
    <rect width="5.19329" height="15.5799" transform="matrix(0.707107 -0.707106 0.707107 0.707106 108.403 17.0264)"
          fill="#B3271A"/>
    <rect width="5.19329" height="15.5799" transform="matrix(-0.707107 -0.707106 0.707107 -0.707106 125.43 36.9458)"
          fill="#F3D74B"/>
    <rect width="5.19329" height="15.5799" transform="matrix(-0.707107 0.707106 -0.707107 -0.707106 145.349 19.9192)"
          fill="#375BB6"/>
    <rect width="5.19329" height="15.5799" transform="matrix(0.707107 0.707106 -0.707107 0.707106 128.323 0)"
          fill="black"/>
    <path d="M211.318 166L211.318 174.415L168.123 174.415L168.123 166L211.318 166Z" fill="url(#paint0_linear_1559_5)"/>
    <rect x="211.318" y="152.537" width="8.41464" height="43.1951" transform="rotate(90 211.318 152.537)"
          fill="url(#paint1_linear_1559_5)"/>
    <rect x="167.001" y="146.927" width="7.85366" height="33.0976" fill="url(#paint2_linear_1559_5)"/>
    <path d="M194.489 142.439H202.343V180.025H194.489V142.439Z" fill="url(#paint3_linear_1559_5)"/>
    <path d="M181.025 143H188.879V180.586H181.025V143Z" fill="url(#paint4_linear_1559_5)"/>
    <rect x="208.513" y="146.927" width="7.85366" height="33.0976" fill="url(#paint5_linear_1559_5)"/>
    <path d="M216.367 180.025L216.367 189.001L167.001 189.001L167.001 180.025L216.367 180.025Z"
          fill="url(#paint6_linear_1559_5)"/>
    <path d="M211.318 124.488L211.318 132.903L168.123 132.903L168.123 124.488L211.318 124.488Z"
          fill="url(#paint7_linear_1559_5)"/>
    <rect x="211.318" y="111.025" width="8.41464" height="43.1951" transform="rotate(90 211.318 111.025)"
          fill="url(#paint8_linear_1559_5)"/>
    <rect x="167.001" y="105.415" width="7.85366" height="33.0976" fill="url(#paint9_linear_1559_5)"/>
    <path d="M194.489 100.927H202.343V138.513H194.489V100.927Z" fill="url(#paint10_linear_1559_5)"/>
    <path d="M181.025 101.488H188.879V139.074H181.025V101.488Z" fill="url(#paint11_linear_1559_5)"/>
    <rect x="208.513" y="105.415" width="7.85366" height="33.0976" fill="url(#paint12_linear_1559_5)"/>
    <path d="M216.367 97.0005L216.367 105.976L167.001 105.976L167.001 97.0005L216.367 97.0005Z"
          fill="url(#paint13_linear_1559_5)"/>
    <path d="M216.367 138.513L216.367 147.488L167.001 147.488L167.001 138.513L216.367 138.513Z"
          fill="url(#paint14_linear_1559_5)"/>
    <rect x="95" y="189" width="95" height="52" transform="rotate(-180 95 189)" fill="url(#paint15_linear_1559_5)"/>
    <ellipse cx="47.5" cy="136.5" rx="47.5" ry="28.5" fill="url(#paint16_linear_1559_5)"/>
    <rect x="69.4727" y="82.5535" width="20.8873" height="83.5623" fill="url(#paint17_linear_1559_5)"/>
    <path d="M132.056 63.6682H152.943V166.116H132.056V63.6682Z" fill="url(#paint18_linear_1559_5)"/>
    <path d="M100.726 63.6685H121.613V166.116H100.726V63.6685Z" fill="url(#paint19_linear_1559_5)"/>
    <path d="M194.001 166L194.001 178L59.001 178L59.001 166L194.001 166Z" fill="url(#paint20_linear_1559_5)"/>
    <path d="M202.001 178L202.001 189L52.001 189L52.001 178L202.001 178Z" fill="url(#paint21_linear_1559_5)"/>
    <path d="M194.365 68.7493L194.365 82.5424L59.3899 82.5424L59.3899 68.7493L194.365 68.7493Z"
          fill="url(#paint22_linear_1559_5)"/>
    <path d="M176.385 53.4783L176.385 68.7492L77.37 68.7492L77.37 53.4783L176.385 53.4783Z"
          fill="url(#paint23_linear_1559_5)"/>
    <path d="M166.779 47.813L166.779 53.478L87.2226 53.478L87.2226 47.813L166.779 47.813Z"
          fill="url(#paint24_linear_1559_5)"/>
    <rect x="163.396" y="82.5535" width="20.8873" height="83.5623" fill="url(#paint25_linear_1559_5)"/>
    <path d="M236.001 32.0005L237.653 36.966H243.001L238.675 40.0349L240.327 45.0005L236.001 41.9316L231.675 45.0005L233.327 40.0349L229.001 36.966H234.349L236.001 32.0005Z"
          fill="url(#paint26_linear_1559_5)"/>
    <path d="M236.001 42.0005L272.001 189H200.001L236.001 42.0005Z" fill="url(#paint27_linear_1559_5)"/>
    <defs>
        <linearGradient id="paint0_linear_1559_5" x1="211.318" y1="169.086" x2="168.123" y2="169.086"
                        gradientUnits="userSpaceOnUse">
            <stop stop-color="#375BB6"/>
            <stop offset="1" stop-color="#5384FF"/>
        </linearGradient>
        <linearGradient id="paint1_linear_1559_5" x1="215.526" y1="152.537" x2="215.526" y2="195.732"
                        gradientUnits="userSpaceOnUse">
            <stop stop-color="#375BB6"/>
            <stop offset="1" stop-color="#5384FF"/>
        </linearGradient>
        <linearGradient id="paint2_linear_1559_5" x1="170.928" y1="146.927" x2="170.928" y2="180.025"
                        gradientUnits="userSpaceOnUse">
            <stop stop-color="#375BB6"/>
            <stop offset="1" stop-color="#5384FF"/>
        </linearGradient>
        <linearGradient id="paint3_linear_1559_5" x1="198.416" y1="142.439" x2="198.416" y2="180.025"
                        gradientUnits="userSpaceOnUse">
            <stop stop-color="#375BB6"/>
            <stop offset="1" stop-color="#5384FF"/>
        </linearGradient>
        <linearGradient id="paint4_linear_1559_5" x1="184.952" y1="143" x2="184.952" y2="180.586"
                        gradientUnits="userSpaceOnUse">
            <stop stop-color="#375BB6"/>
            <stop offset="1" stop-color="#5384FF"/>
        </linearGradient>
        <linearGradient id="paint5_linear_1559_5" x1="212.44" y1="146.927" x2="212.44" y2="180.025"
                        gradientUnits="userSpaceOnUse">
            <stop stop-color="#375BB6"/>
            <stop offset="1" stop-color="#5384FF"/>
        </linearGradient>
        <linearGradient id="paint6_linear_1559_5" x1="216.367" y1="184.513" x2="167.001" y2="184.513"
                        gradientUnits="userSpaceOnUse">
            <stop stop-color="#375BB6"/>
            <stop offset="1" stop-color="#5384FF"/>
        </linearGradient>
        <linearGradient id="paint7_linear_1559_5" x1="211.318" y1="127.574" x2="168.123" y2="127.574"
                        gradientUnits="userSpaceOnUse">
            <stop stop-color="#375BB6"/>
            <stop offset="1" stop-color="#5384FF"/>
        </linearGradient>
        <linearGradient id="paint8_linear_1559_5" x1="215.526" y1="111.025" x2="215.526" y2="154.22"
                        gradientUnits="userSpaceOnUse">
            <stop stop-color="#375BB6"/>
            <stop offset="1" stop-color="#5384FF"/>
        </linearGradient>
        <linearGradient id="paint9_linear_1559_5" x1="170.928" y1="105.415" x2="170.928" y2="138.513"
                        gradientUnits="userSpaceOnUse">
            <stop stop-color="#375BB6"/>
            <stop offset="1" stop-color="#5384FF"/>
        </linearGradient>
        <linearGradient id="paint10_linear_1559_5" x1="198.416" y1="100.927" x2="198.416" y2="138.513"
                        gradientUnits="userSpaceOnUse">
            <stop stop-color="#375BB6"/>
            <stop offset="1" stop-color="#5384FF"/>
        </linearGradient>
        <linearGradient id="paint11_linear_1559_5" x1="184.952" y1="101.488" x2="184.952" y2="139.074"
                        gradientUnits="userSpaceOnUse">
            <stop stop-color="#375BB6"/>
            <stop offset="1" stop-color="#5384FF"/>
        </linearGradient>
        <linearGradient id="paint12_linear_1559_5" x1="212.44" y1="105.415" x2="212.44" y2="138.513"
                        gradientUnits="userSpaceOnUse">
            <stop stop-color="#375BB6"/>
            <stop offset="1" stop-color="#5384FF"/>
        </linearGradient>
        <linearGradient id="paint13_linear_1559_5" x1="216.367" y1="101.488" x2="167.001" y2="101.488"
                        gradientUnits="userSpaceOnUse">
            <stop stop-color="#375BB6"/>
            <stop offset="1" stop-color="#5384FF"/>
        </linearGradient>
        <linearGradient id="paint14_linear_1559_5" x1="216.367" y1="143.001" x2="167.001" y2="143"
                        gradientUnits="userSpaceOnUse">
            <stop stop-color="#375BB6"/>
            <stop offset="1" stop-color="#5384FF"/>
        </linearGradient>
        <linearGradient id="paint15_linear_1559_5" x1="142.5" y1="189" x2="142.5" y2="241"
                        gradientUnits="userSpaceOnUse">
            <stop stop-color="#B3271A"/>
            <stop offset="1" stop-color="#FF5E4F"/>
        </linearGradient>
        <linearGradient id="paint16_linear_1559_5" x1="47.5" y1="108" x2="47.5" y2="165" gradientUnits="userSpaceOnUse">
            <stop stop-color="#B3271A"/>
            <stop offset="1" stop-color="#FF5E4F"/>
        </linearGradient>
        <linearGradient id="paint17_linear_1559_5" x1="79.9163" y1="82.5535" x2="79.9163" y2="166.116"
                        gradientUnits="userSpaceOnUse">
            <stop/>
            <stop offset="1" stop-color="#666666"/>
        </linearGradient>
        <linearGradient id="paint18_linear_1559_5" x1="142.499" y1="63.6682" x2="142.499" y2="166.116"
                        gradientUnits="userSpaceOnUse">
            <stop/>
            <stop offset="1" stop-color="#666666"/>
        </linearGradient>
        <linearGradient id="paint19_linear_1559_5" x1="111.169" y1="63.6685" x2="111.169" y2="166.116"
                        gradientUnits="userSpaceOnUse">
            <stop/>
            <stop offset="1" stop-color="#666666"/>
        </linearGradient>
        <linearGradient id="paint20_linear_1559_5" x1="194.001" y1="172" x2="59.001" y2="172"
                        gradientUnits="userSpaceOnUse">
            <stop/>
            <stop offset="1" stop-color="#666666"/>
        </linearGradient>
        <linearGradient id="paint21_linear_1559_5" x1="202.001" y1="183.5" x2="52.001" y2="183.5"
                        gradientUnits="userSpaceOnUse">
            <stop/>
            <stop offset="1" stop-color="#666666"/>
        </linearGradient>
        <linearGradient id="paint22_linear_1559_5" x1="194.365" y1="75.6458" x2="59.3899" y2="75.6458"
                        gradientUnits="userSpaceOnUse">
            <stop/>
            <stop offset="1" stop-color="#666666"/>
        </linearGradient>
        <linearGradient id="paint23_linear_1559_5" x1="176.385" y1="61.1137" x2="77.37" y2="61.1137"
                        gradientUnits="userSpaceOnUse">
            <stop/>
            <stop offset="1" stop-color="#666666"/>
        </linearGradient>
        <linearGradient id="paint24_linear_1559_5" x1="166.779" y1="50.6455" x2="87.2226" y2="50.6455"
                        gradientUnits="userSpaceOnUse">
            <stop/>
            <stop offset="1" stop-color="#666666"/>
        </linearGradient>
        <linearGradient id="paint25_linear_1559_5" x1="173.84" y1="82.5535" x2="173.84" y2="166.116"
                        gradientUnits="userSpaceOnUse">
            <stop/>
            <stop offset="1" stop-color="#666666"/>
        </linearGradient>
        <linearGradient id="paint26_linear_1559_5" x1="236.001" y1="32.0005" x2="236.001" y2="46.3729"
                        gradientUnits="userSpaceOnUse">
            <stop stop-color="#F3D74B"/>
            <stop offset="1" stop-color="#FFF6C7"/>
        </linearGradient>
        <linearGradient id="paint27_linear_1559_5" x1="236.001" y1="42.0005" x2="236.001" y2="189"
                        gradientUnits="userSpaceOnUse">
            <stop stop-color="#FFF7CD"/>
            <stop offset="0.505" stop-color="#F9E78B"/>
            <stop offset="1" stop-color="#F3D74B"/>
        </linearGradient>
    </defs>
</svg>
