<svg width="512" height="512" viewBox="0 0 512 512" fill="none" xmlns="http://www.w3.org/2000/svg">
<rect width="512" height="512" rx="256" fill="white"/>
<rect width="512" height="512" rx="256" fill="url(#paint0_linear_1001_33)"/>
<path d="M193.358 291.33C193.929 286.786 199.723 285.221 202.505 288.859L251.42 352.825C253.469 355.505 257.505 355.505 259.554 352.825L308.469 288.859C311.251 285.221 317.045 286.786 317.617 291.33L328.395 376.959C328.717 379.519 330.894 381.44 333.475 381.44H407.078C410.262 381.44 412.674 378.564 412.12 375.428L368.53 128.981C367.768 124.673 362.304 123.243 359.53 126.626L259.446 248.663C257.398 251.161 253.576 251.161 251.528 248.663L151.444 126.626C148.67 123.243 143.206 124.673 142.444 128.981L98.8543 375.428C98.2997 378.564 100.712 381.44 103.896 381.44H177.499C180.08 381.44 182.257 379.519 182.579 376.959L193.358 291.33Z" fill="white"/>
<defs>
<linearGradient id="paint0_linear_1001_33" x1="256" y1="0" x2="256" y2="512" gradientUnits="userSpaceOnUse">
<stop stop-color="#4527A0" stop-opacity="0.75"/>
<stop offset="1" stop-color="#4527A0"/>
</linearGradient>
</defs>
</svg>
