<svg width="264" height="233" viewBox="0 0 264 233" fill="none" xmlns="http://www.w3.org/2000/svg">
    <path d="M130.247 226.77L132.013 228.532L133.779 226.77L241.532 119.254C250.436 110.369 256.368 99.9997 259.277 88.1765C262.241 76.4161 262.242 64.7014 259.275 53.0709C256.294 41.3199 250.361 31.0873 241.517 22.4079C232.485 13.5392 222.104 7.62327 210.399 4.71978C198.815 1.75934 187.211 1.76007 175.627 4.72197C164 7.69477 153.629 13.6049 144.531 22.3939L144.529 22.396L132.013 34.5172L119.502 22.4008C119.502 22.4003 119.501 22.3998 119.501 22.3992C110.469 13.6041 100.093 7.69374 88.3977 4.72151C76.8119 1.75948 65.1742 1.76013 53.5234 4.71967C41.8854 7.62375 31.5403 13.5408 22.5095 22.4076C13.6664 31.0866 7.73322 41.3187 4.75248 53.0691C1.78514 64.6969 1.75065 76.4093 4.64282 88.169L4.64455 88.176L4.64631 88.183C7.626 100.003 13.5915 110.37 22.4948 119.254L130.247 226.77Z"
          fill="#B3271A" stroke="black" stroke-width="5"/>
    <path d="M137.92 187.826L101.996 167.137C99.1301 165.487 96.9199 163.268 95.365 160.48C93.8286 157.687 93.0416 154.713 93.004 151.558C92.9615 148.385 93.7667 145.397 95.4196 142.595C97.1129 139.723 99.3319 137.527 102.077 136.005C104.835 134.46 107.785 133.669 110.928 133.633C114.089 133.592 117.118 134.383 120.016 136.005L124.739 138.632L127.516 133.995C129.232 131.137 131.461 128.937 134.2 127.397C136.94 125.857 139.881 125.069 143.024 125.033C146.18 124.974 149.21 125.764 152.112 127.404C154.944 129.005 157.136 131.189 158.685 133.959C160.23 136.71 161.027 139.682 161.074 142.873C161.14 146.06 160.345 149.085 158.688 151.947L137.92 187.826Z"
          fill="#F3D74B"/>
    <path d="M137.652 188.306L121.708 160.76C120.437 158.563 119.819 156.239 119.855 153.789C119.906 151.342 120.524 149.063 121.71 146.951C122.9 144.824 124.583 143.147 126.757 141.918C128.985 140.659 131.304 140.05 133.713 140.092C136.14 140.123 138.405 140.73 140.509 141.913C142.626 143.099 144.337 144.787 145.64 146.978L147.772 150.538L151.399 148.521C153.637 147.28 155.963 146.673 158.376 146.7C160.789 146.728 163.047 147.333 165.15 148.515C167.271 149.688 168.982 151.376 170.282 153.581C171.551 155.732 172.169 158.026 172.137 160.462C172.108 162.884 171.496 165.166 170.303 167.306C169.123 169.45 167.433 171.156 165.233 172.423L137.652 188.306Z"
          fill="#375BB6"/>
</svg>