<svg width="1300" height="100" viewBox="0 0 1300 100" fill="none" xmlns="http://www.w3.org/2000/svg">
<mask id="mask0_2077_7867" style="mask-type:alpha" maskUnits="userSpaceOnUse" x="600" y="0" width="700" height="100">
<rect x="600" width="700" height="100" fill="white"/>
</mask>
<g mask="url(#mask0_2077_7867)">
<mask id="mask1_2077_7867" style="mask-type:alpha" maskUnits="userSpaceOnUse" x="600" y="0" width="150" height="280">
<rect x="600" width="150" height="280" fill="black" fill-opacity="0.25"/>
</mask>
<g mask="url(#mask1_2077_7867)">
<rect x="600" y="88.0424" width="7.02825" height="21.0848" transform="rotate(-45 600 88.0424)" fill="black" fill-opacity="0.25"/>
<rect x="623.043" y="115" width="7.02825" height="21.0848" transform="rotate(-135 623.043 115)" fill="black" fill-opacity="0.25"/>
<rect x="649.999" y="91.9578" width="7.02825" height="21.0848" transform="rotate(135 649.999 91.9578)" fill="black" fill-opacity="0.25"/>
<rect x="626.957" y="65" width="7.02825" height="21.0848" transform="rotate(45 626.957 65)" fill="black" fill-opacity="0.25"/>
<rect x="700" y="88.0424" width="7.02825" height="21.0848" transform="rotate(-45 700 88.0424)" fill="black" fill-opacity="0.25"/>
<rect x="723.043" y="115" width="7.02825" height="21.0848" transform="rotate(-135 723.043 115)" fill="black" fill-opacity="0.25"/>
<rect x="749.999" y="91.9578" width="7.02825" height="21.0848" transform="rotate(135 749.999 91.9578)" fill="black" fill-opacity="0.25"/>
<rect x="726.957" y="65" width="7.02825" height="21.0848" transform="rotate(45 726.957 65)" fill="black" fill-opacity="0.25"/>
<rect x="650" y="38.0424" width="7.02825" height="21.0848" transform="rotate(-45 650 38.0424)" fill="black" fill-opacity="0.25"/>
<rect x="673.043" y="65.0001" width="7.02825" height="21.0848" transform="rotate(-135 673.043 65.0001)" fill="black" fill-opacity="0.25"/>
<rect x="699.999" y="41.9578" width="7.02825" height="21.0848" transform="rotate(135 699.999 41.9578)" fill="black" fill-opacity="0.25"/>
<rect x="676.957" y="15" width="7.02825" height="21.0848" transform="rotate(45 676.957 15)" fill="black" fill-opacity="0.25"/>
<rect x="600" y="-11.9576" width="7.02825" height="21.0848" transform="rotate(-45 600 -11.9576)" fill="black" fill-opacity="0.25"/>
<rect x="623.043" y="15.0001" width="7.02825" height="21.0848" transform="rotate(-135 623.043 15.0001)" fill="black" fill-opacity="0.25"/>
<rect x="700" y="-11.9576" width="7.02825" height="21.0848" transform="rotate(-45 700 -11.9576)" fill="black" fill-opacity="0.25"/>
<rect x="723.043" y="15.0001" width="7.02825" height="21.0848" transform="rotate(-135 723.043 15.0001)" fill="black" fill-opacity="0.25"/>
</g>
<mask id="mask2_2077_7867" style="mask-type:alpha" maskUnits="userSpaceOnUse" x="700" y="0" width="150" height="280">
<rect x="700" width="150" height="280" fill="black" fill-opacity="0.25"/>
</mask>
<g mask="url(#mask2_2077_7867)">
<rect x="700" y="88.0424" width="7.02825" height="21.0848" transform="rotate(-45 700 88.0424)" fill="black" fill-opacity="0.25"/>
<rect x="723.043" y="115" width="7.02825" height="21.0848" transform="rotate(-135 723.043 115)" fill="black" fill-opacity="0.25"/>
<rect x="749.999" y="91.9578" width="7.02825" height="21.0848" transform="rotate(135 749.999 91.9578)" fill="black" fill-opacity="0.25"/>
<rect x="726.957" y="65" width="7.02825" height="21.0848" transform="rotate(45 726.957 65)" fill="black" fill-opacity="0.25"/>
<rect x="800" y="88.0424" width="7.02825" height="21.0848" transform="rotate(-45 800 88.0424)" fill="black" fill-opacity="0.25"/>
<rect x="823.043" y="115" width="7.02825" height="21.0848" transform="rotate(-135 823.043 115)" fill="black" fill-opacity="0.25"/>
<rect x="849.999" y="91.9578" width="7.02825" height="21.0848" transform="rotate(135 849.999 91.9578)" fill="black" fill-opacity="0.25"/>
<rect x="826.957" y="65" width="7.02825" height="21.0848" transform="rotate(45 826.957 65)" fill="black" fill-opacity="0.25"/>
<rect x="750" y="38.0424" width="7.02825" height="21.0848" transform="rotate(-45 750 38.0424)" fill="black" fill-opacity="0.25"/>
<rect x="773.043" y="65.0001" width="7.02825" height="21.0848" transform="rotate(-135 773.043 65.0001)" fill="black" fill-opacity="0.25"/>
<rect x="799.999" y="41.9578" width="7.02825" height="21.0848" transform="rotate(135 799.999 41.9578)" fill="black" fill-opacity="0.25"/>
<rect x="776.957" y="15" width="7.02825" height="21.0848" transform="rotate(45 776.957 15)" fill="black" fill-opacity="0.25"/>
<rect x="700" y="-11.9576" width="7.02825" height="21.0848" transform="rotate(-45 700 -11.9576)" fill="black" fill-opacity="0.25"/>
<rect x="723.043" y="15.0001" width="7.02825" height="21.0848" transform="rotate(-135 723.043 15.0001)" fill="black" fill-opacity="0.25"/>
<rect x="800" y="-11.9576" width="7.02825" height="21.0848" transform="rotate(-45 800 -11.9576)" fill="black" fill-opacity="0.25"/>
<rect x="823.043" y="15.0001" width="7.02825" height="21.0848" transform="rotate(-135 823.043 15.0001)" fill="black" fill-opacity="0.25"/>
</g>
<mask id="mask3_2077_7867" style="mask-type:alpha" maskUnits="userSpaceOnUse" x="800" y="0" width="150" height="280">
<rect x="800" width="150" height="280" fill="black" fill-opacity="0.25"/>
</mask>
<g mask="url(#mask3_2077_7867)">
<rect x="800" y="88.0424" width="7.02825" height="21.0848" transform="rotate(-45 800 88.0424)" fill="black" fill-opacity="0.25"/>
<rect x="823.043" y="115" width="7.02825" height="21.0848" transform="rotate(-135 823.043 115)" fill="black" fill-opacity="0.25"/>
<rect x="849.999" y="91.9578" width="7.02825" height="21.0848" transform="rotate(135 849.999 91.9578)" fill="black" fill-opacity="0.25"/>
<rect x="826.957" y="65" width="7.02825" height="21.0848" transform="rotate(45 826.957 65)" fill="black" fill-opacity="0.25"/>
<rect x="900" y="88.0424" width="7.02825" height="21.0848" transform="rotate(-45 900 88.0424)" fill="black" fill-opacity="0.25"/>
<rect x="923.043" y="115" width="7.02825" height="21.0848" transform="rotate(-135 923.043 115)" fill="black" fill-opacity="0.25"/>
<rect x="949.999" y="91.9578" width="7.02825" height="21.0848" transform="rotate(135 949.999 91.9578)" fill="black" fill-opacity="0.25"/>
<rect x="926.957" y="65" width="7.02825" height="21.0848" transform="rotate(45 926.957 65)" fill="black" fill-opacity="0.25"/>
<rect x="850" y="38.0424" width="7.02825" height="21.0848" transform="rotate(-45 850 38.0424)" fill="black" fill-opacity="0.25"/>
<rect x="873.043" y="65.0001" width="7.02825" height="21.0848" transform="rotate(-135 873.043 65.0001)" fill="black" fill-opacity="0.25"/>
<rect x="899.999" y="41.9578" width="7.02825" height="21.0848" transform="rotate(135 899.999 41.9578)" fill="black" fill-opacity="0.25"/>
<rect x="876.957" y="15" width="7.02825" height="21.0848" transform="rotate(45 876.957 15)" fill="black" fill-opacity="0.25"/>
<rect x="800" y="-11.9576" width="7.02825" height="21.0848" transform="rotate(-45 800 -11.9576)" fill="black" fill-opacity="0.25"/>
<rect x="823.043" y="15.0001" width="7.02825" height="21.0848" transform="rotate(-135 823.043 15.0001)" fill="black" fill-opacity="0.25"/>
<rect x="900" y="-11.9576" width="7.02825" height="21.0848" transform="rotate(-45 900 -11.9576)" fill="black" fill-opacity="0.25"/>
<rect x="923.043" y="15.0001" width="7.02825" height="21.0848" transform="rotate(-135 923.043 15.0001)" fill="black" fill-opacity="0.25"/>
</g>
<mask id="mask4_2077_7867" style="mask-type:alpha" maskUnits="userSpaceOnUse" x="900" y="0" width="150" height="280">
<rect x="900" width="150" height="280" fill="black" fill-opacity="0.25"/>
</mask>
<g mask="url(#mask4_2077_7867)">
<rect x="900" y="88.0424" width="7.02825" height="21.0848" transform="rotate(-45 900 88.0424)" fill="black" fill-opacity="0.25"/>
<rect x="923.043" y="115" width="7.02825" height="21.0848" transform="rotate(-135 923.043 115)" fill="black" fill-opacity="0.25"/>
<rect x="949.999" y="91.9578" width="7.02825" height="21.0848" transform="rotate(135 949.999 91.9578)" fill="black" fill-opacity="0.25"/>
<rect x="926.957" y="65" width="7.02825" height="21.0848" transform="rotate(45 926.957 65)" fill="black" fill-opacity="0.25"/>
<rect x="1000" y="88.0424" width="7.02825" height="21.0848" transform="rotate(-45 1000 88.0424)" fill="black" fill-opacity="0.25"/>
<rect x="1023.04" y="115" width="7.02825" height="21.0848" transform="rotate(-135 1023.04 115)" fill="black" fill-opacity="0.25"/>
<rect x="1050" y="91.9578" width="7.02825" height="21.0848" transform="rotate(135 1050 91.9578)" fill="black" fill-opacity="0.25"/>
<rect x="1026.96" y="65" width="7.02825" height="21.0848" transform="rotate(45 1026.96 65)" fill="black" fill-opacity="0.25"/>
<rect x="950" y="38.0424" width="7.02825" height="21.0848" transform="rotate(-45 950 38.0424)" fill="black" fill-opacity="0.25"/>
<rect x="973.043" y="65.0001" width="7.02825" height="21.0848" transform="rotate(-135 973.043 65.0001)" fill="black" fill-opacity="0.25"/>
<rect x="999.999" y="41.9578" width="7.02825" height="21.0848" transform="rotate(135 999.999 41.9578)" fill="black" fill-opacity="0.25"/>
<rect x="976.957" y="15" width="7.02825" height="21.0848" transform="rotate(45 976.957 15)" fill="black" fill-opacity="0.25"/>
<rect x="900" y="-11.9576" width="7.02825" height="21.0848" transform="rotate(-45 900 -11.9576)" fill="black" fill-opacity="0.25"/>
<rect x="923.043" y="15.0001" width="7.02825" height="21.0848" transform="rotate(-135 923.043 15.0001)" fill="black" fill-opacity="0.25"/>
<rect x="1000" y="-11.9576" width="7.02825" height="21.0848" transform="rotate(-45 1000 -11.9576)" fill="black" fill-opacity="0.25"/>
<rect x="1023.04" y="15.0001" width="7.02825" height="21.0848" transform="rotate(-135 1023.04 15.0001)" fill="black" fill-opacity="0.25"/>
</g>
<mask id="mask5_2077_7867" style="mask-type:alpha" maskUnits="userSpaceOnUse" x="1000" y="0" width="150" height="280">
<rect x="1000" width="150" height="280" fill="black" fill-opacity="0.25"/>
</mask>
<g mask="url(#mask5_2077_7867)">
<rect x="1000" y="88.0424" width="7.02825" height="21.0848" transform="rotate(-45 1000 88.0424)" fill="black" fill-opacity="0.25"/>
<rect x="1023.04" y="115" width="7.02825" height="21.0848" transform="rotate(-135 1023.04 115)" fill="black" fill-opacity="0.25"/>
<rect x="1050" y="91.9578" width="7.02825" height="21.0848" transform="rotate(135 1050 91.9578)" fill="black" fill-opacity="0.25"/>
<rect x="1026.96" y="65" width="7.02825" height="21.0848" transform="rotate(45 1026.96 65)" fill="black" fill-opacity="0.25"/>
<rect x="1100" y="88.0424" width="7.02825" height="21.0848" transform="rotate(-45 1100 88.0424)" fill="black" fill-opacity="0.25"/>
<rect x="1123.04" y="115" width="7.02825" height="21.0848" transform="rotate(-135 1123.04 115)" fill="black" fill-opacity="0.25"/>
<rect x="1150" y="91.9578" width="7.02825" height="21.0848" transform="rotate(135 1150 91.9578)" fill="black" fill-opacity="0.25"/>
<rect x="1126.96" y="65" width="7.02825" height="21.0848" transform="rotate(45 1126.96 65)" fill="black" fill-opacity="0.25"/>
<rect x="1050" y="38.0424" width="7.02825" height="21.0848" transform="rotate(-45 1050 38.0424)" fill="black" fill-opacity="0.25"/>
<rect x="1073.04" y="65.0001" width="7.02825" height="21.0848" transform="rotate(-135 1073.04 65.0001)" fill="black" fill-opacity="0.25"/>
<rect x="1100" y="41.9578" width="7.02825" height="21.0848" transform="rotate(135 1100 41.9578)" fill="black" fill-opacity="0.25"/>
<rect x="1076.96" y="15" width="7.02825" height="21.0848" transform="rotate(45 1076.96 15)" fill="black" fill-opacity="0.25"/>
<rect x="1000" y="-11.9576" width="7.02825" height="21.0848" transform="rotate(-45 1000 -11.9576)" fill="black" fill-opacity="0.25"/>
<rect x="1023.04" y="15.0001" width="7.02825" height="21.0848" transform="rotate(-135 1023.04 15.0001)" fill="black" fill-opacity="0.25"/>
<rect x="1100" y="-11.9576" width="7.02825" height="21.0848" transform="rotate(-45 1100 -11.9576)" fill="black" fill-opacity="0.25"/>
<rect x="1123.04" y="15.0001" width="7.02825" height="21.0848" transform="rotate(-135 1123.04 15.0001)" fill="black" fill-opacity="0.25"/>
</g>
<mask id="mask6_2077_7867" style="mask-type:alpha" maskUnits="userSpaceOnUse" x="1100" y="0" width="150" height="280">
<rect x="1100" width="150" height="280" fill="black" fill-opacity="0.25"/>
</mask>
<g mask="url(#mask6_2077_7867)">
<rect x="1100" y="88.0424" width="7.02825" height="21.0848" transform="rotate(-45 1100 88.0424)" fill="black" fill-opacity="0.25"/>
<rect x="1123.04" y="115" width="7.02825" height="21.0848" transform="rotate(-135 1123.04 115)" fill="black" fill-opacity="0.25"/>
<rect x="1150" y="91.9578" width="7.02825" height="21.0848" transform="rotate(135 1150 91.9578)" fill="black" fill-opacity="0.25"/>
<rect x="1126.96" y="65" width="7.02825" height="21.0848" transform="rotate(45 1126.96 65)" fill="black" fill-opacity="0.25"/>
<rect x="1200" y="88.0424" width="7.02825" height="21.0848" transform="rotate(-45 1200 88.0424)" fill="black" fill-opacity="0.25"/>
<rect x="1223.04" y="115" width="7.02825" height="21.0848" transform="rotate(-135 1223.04 115)" fill="black" fill-opacity="0.25"/>
<rect x="1250" y="91.9578" width="7.02825" height="21.0848" transform="rotate(135 1250 91.9578)" fill="black" fill-opacity="0.25"/>
<rect x="1226.96" y="65" width="7.02825" height="21.0848" transform="rotate(45 1226.96 65)" fill="black" fill-opacity="0.25"/>
<rect x="1150" y="38.0424" width="7.02825" height="21.0848" transform="rotate(-45 1150 38.0424)" fill="black" fill-opacity="0.25"/>
<rect x="1173.04" y="65.0001" width="7.02825" height="21.0848" transform="rotate(-135 1173.04 65.0001)" fill="black" fill-opacity="0.25"/>
<rect x="1200" y="41.9578" width="7.02825" height="21.0848" transform="rotate(135 1200 41.9578)" fill="black" fill-opacity="0.25"/>
<rect x="1176.96" y="15" width="7.02825" height="21.0848" transform="rotate(45 1176.96 15)" fill="black" fill-opacity="0.25"/>
<rect x="1100" y="-11.9576" width="7.02825" height="21.0848" transform="rotate(-45 1100 -11.9576)" fill="black" fill-opacity="0.25"/>
<rect x="1123.04" y="15.0001" width="7.02825" height="21.0848" transform="rotate(-135 1123.04 15.0001)" fill="black" fill-opacity="0.25"/>
<rect x="1200" y="-11.9576" width="7.02825" height="21.0848" transform="rotate(-45 1200 -11.9576)" fill="black" fill-opacity="0.25"/>
<rect x="1223.04" y="15.0001" width="7.02825" height="21.0848" transform="rotate(-135 1223.04 15.0001)" fill="black" fill-opacity="0.25"/>
</g>
<mask id="mask7_2077_7867" style="mask-type:alpha" maskUnits="userSpaceOnUse" x="1200" y="0" width="150" height="280">
<rect x="1200" width="150" height="280" fill="black" fill-opacity="0.25"/>
</mask>
<g mask="url(#mask7_2077_7867)">
<rect x="1200" y="88.0424" width="7.02825" height="21.0848" transform="rotate(-45 1200 88.0424)" fill="black" fill-opacity="0.25"/>
<rect x="1223.04" y="115" width="7.02825" height="21.0848" transform="rotate(-135 1223.04 115)" fill="black" fill-opacity="0.25"/>
<rect x="1250" y="91.9578" width="7.02825" height="21.0848" transform="rotate(135 1250 91.9578)" fill="black" fill-opacity="0.25"/>
<rect x="1226.96" y="65" width="7.02825" height="21.0848" transform="rotate(45 1226.96 65)" fill="black" fill-opacity="0.25"/>
<rect x="1250" y="38.0424" width="7.02825" height="21.0848" transform="rotate(-45 1250 38.0424)" fill="black" fill-opacity="0.25"/>
<rect x="1273.04" y="65.0001" width="7.02825" height="21.0848" transform="rotate(-135 1273.04 65.0001)" fill="black" fill-opacity="0.25"/>
<rect x="1300" y="41.9578" width="7.02825" height="21.0848" transform="rotate(135 1300 41.9578)" fill="black" fill-opacity="0.25"/>
<rect x="1276.96" y="15" width="7.02825" height="21.0848" transform="rotate(45 1276.96 15)" fill="black" fill-opacity="0.25"/>
<rect x="1200" y="-11.9576" width="7.02825" height="21.0848" transform="rotate(-45 1200 -11.9576)" fill="black" fill-opacity="0.25"/>
<rect x="1223.04" y="15.0001" width="7.02825" height="21.0848" transform="rotate(-135 1223.04 15.0001)" fill="black" fill-opacity="0.25"/>
</g>
<mask id="mask8_2077_7867" style="mask-type:alpha" maskUnits="userSpaceOnUse" x="900" y="0" width="150" height="280">
<rect x="900" width="150" height="280" fill="white"/>
</mask>
<g mask="url(#mask8_2077_7867)">
<rect x="900" y="88.0424" width="7.02825" height="21.0848" transform="rotate(-45 900 88.0424)" fill="#B3271A"/>
<rect x="923.043" y="115" width="7.02825" height="21.0848" transform="rotate(-135 923.043 115)" fill="#F3D74B"/>
<rect x="949.999" y="91.9578" width="7.02825" height="21.0848" transform="rotate(135 949.999 91.9578)" fill="#375BB6"/>
<rect x="926.957" y="65" width="7.02825" height="21.0848" transform="rotate(45 926.957 65)" fill="black"/>
<rect x="1000" y="88.0424" width="7.02825" height="21.0848" transform="rotate(-45 1000 88.0424)" fill="#B3271A"/>
<rect x="1023.04" y="115" width="7.02825" height="21.0848" transform="rotate(-135 1023.04 115)" fill="#F3D74B"/>
<rect x="1050" y="91.9578" width="7.02825" height="21.0848" transform="rotate(135 1050 91.9578)" fill="#375BB6"/>
<rect x="1026.96" y="65" width="7.02825" height="21.0848" transform="rotate(45 1026.96 65)" fill="black"/>
<rect x="950" y="38.0424" width="7.02825" height="21.0848" transform="rotate(-45 950 38.0424)" fill="#B3271A"/>
<rect x="973.043" y="65.0001" width="7.02825" height="21.0848" transform="rotate(-135 973.043 65.0001)" fill="#F3D74B"/>
<rect x="999.999" y="41.9578" width="7.02825" height="21.0848" transform="rotate(135 999.999 41.9578)" fill="#375BB6"/>
<rect x="976.957" y="15" width="7.02825" height="21.0848" transform="rotate(45 976.957 15)" fill="black"/>
<rect x="900" y="-11.9576" width="7.02825" height="21.0848" transform="rotate(-45 900 -11.9576)" fill="#B3271A"/>
<rect x="923.043" y="15.0001" width="7.02825" height="21.0848" transform="rotate(-135 923.043 15.0001)" fill="#F3D74B"/>
<rect x="1000" y="-11.9576" width="7.02825" height="21.0848" transform="rotate(-45 1000 -11.9576)" fill="#B3271A"/>
<rect x="1023.04" y="15.0001" width="7.02825" height="21.0848" transform="rotate(-135 1023.04 15.0001)" fill="#F3D74B"/>
</g>
</g>
<mask id="mask9_2077_7867" style="mask-type:alpha" maskUnits="userSpaceOnUse" x="0" y="0" width="700" height="100">
<rect width="700" height="100" fill="white"/>
</mask>
<g mask="url(#mask9_2077_7867)">
<mask id="mask10_2077_7867" style="mask-type:alpha" maskUnits="userSpaceOnUse" x="0" y="0" width="150" height="280">
<rect width="150" height="280" fill="black" fill-opacity="0.25"/>
</mask>
<g mask="url(#mask10_2077_7867)">
<rect y="88.0424" width="7.02825" height="21.0848" transform="rotate(-45 0 88.0424)" fill="black" fill-opacity="0.25"/>
<rect x="23.043" y="115" width="7.02825" height="21.0848" transform="rotate(-135 23.043 115)" fill="black" fill-opacity="0.25"/>
<rect x="49.999" y="91.9578" width="7.02825" height="21.0848" transform="rotate(135 49.999 91.9578)" fill="black" fill-opacity="0.25"/>
<rect x="26.957" y="65" width="7.02825" height="21.0848" transform="rotate(45 26.957 65)" fill="black" fill-opacity="0.25"/>
<rect x="100" y="88.0424" width="7.02825" height="21.0848" transform="rotate(-45 100 88.0424)" fill="black" fill-opacity="0.25"/>
<rect x="123.043" y="115" width="7.02825" height="21.0848" transform="rotate(-135 123.043 115)" fill="black" fill-opacity="0.25"/>
<rect x="149.999" y="91.9578" width="7.02825" height="21.0848" transform="rotate(135 149.999 91.9578)" fill="black" fill-opacity="0.25"/>
<rect x="126.957" y="65" width="7.02825" height="21.0848" transform="rotate(45 126.957 65)" fill="black" fill-opacity="0.25"/>
<rect x="50" y="38.0424" width="7.02825" height="21.0848" transform="rotate(-45 50 38.0424)" fill="black" fill-opacity="0.25"/>
<rect x="73.043" y="65.0001" width="7.02825" height="21.0848" transform="rotate(-135 73.043 65.0001)" fill="black" fill-opacity="0.25"/>
<rect x="99.999" y="41.9578" width="7.02825" height="21.0848" transform="rotate(135 99.999 41.9578)" fill="black" fill-opacity="0.25"/>
<rect x="76.957" y="15" width="7.02825" height="21.0848" transform="rotate(45 76.957 15)" fill="black" fill-opacity="0.25"/>
<rect y="-11.9576" width="7.02825" height="21.0848" transform="rotate(-45 0 -11.9576)" fill="black" fill-opacity="0.25"/>
<rect x="23.043" y="15.0001" width="7.02825" height="21.0848" transform="rotate(-135 23.043 15.0001)" fill="black" fill-opacity="0.25"/>
<rect x="100" y="-11.9576" width="7.02825" height="21.0848" transform="rotate(-45 100 -11.9576)" fill="black" fill-opacity="0.25"/>
<rect x="123.043" y="15.0001" width="7.02825" height="21.0848" transform="rotate(-135 123.043 15.0001)" fill="black" fill-opacity="0.25"/>
</g>
<mask id="mask11_2077_7867" style="mask-type:alpha" maskUnits="userSpaceOnUse" x="100" y="0" width="150" height="280">
<rect x="100" width="150" height="280" fill="black" fill-opacity="0.25"/>
</mask>
<g mask="url(#mask11_2077_7867)">
<rect x="100" y="88.0424" width="7.02825" height="21.0848" transform="rotate(-45 100 88.0424)" fill="black" fill-opacity="0.25"/>
<rect x="123.043" y="115" width="7.02825" height="21.0848" transform="rotate(-135 123.043 115)" fill="black" fill-opacity="0.25"/>
<rect x="149.999" y="91.9578" width="7.02825" height="21.0848" transform="rotate(135 149.999 91.9578)" fill="black" fill-opacity="0.25"/>
<rect x="126.957" y="65" width="7.02825" height="21.0848" transform="rotate(45 126.957 65)" fill="black" fill-opacity="0.25"/>
<rect x="200" y="88.0424" width="7.02825" height="21.0848" transform="rotate(-45 200 88.0424)" fill="black" fill-opacity="0.25"/>
<rect x="223.043" y="115" width="7.02825" height="21.0848" transform="rotate(-135 223.043 115)" fill="black" fill-opacity="0.25"/>
<rect x="249.999" y="91.9578" width="7.02825" height="21.0848" transform="rotate(135 249.999 91.9578)" fill="black" fill-opacity="0.25"/>
<rect x="226.957" y="65" width="7.02825" height="21.0848" transform="rotate(45 226.957 65)" fill="black" fill-opacity="0.25"/>
<rect x="150" y="38.0424" width="7.02825" height="21.0848" transform="rotate(-45 150 38.0424)" fill="black" fill-opacity="0.25"/>
<rect x="173.043" y="65.0001" width="7.02825" height="21.0848" transform="rotate(-135 173.043 65.0001)" fill="black" fill-opacity="0.25"/>
<rect x="199.999" y="41.9578" width="7.02825" height="21.0848" transform="rotate(135 199.999 41.9578)" fill="black" fill-opacity="0.25"/>
<rect x="176.957" y="15" width="7.02825" height="21.0848" transform="rotate(45 176.957 15)" fill="black" fill-opacity="0.25"/>
<rect x="100" y="-11.9576" width="7.02825" height="21.0848" transform="rotate(-45 100 -11.9576)" fill="black" fill-opacity="0.25"/>
<rect x="123.043" y="15.0001" width="7.02825" height="21.0848" transform="rotate(-135 123.043 15.0001)" fill="black" fill-opacity="0.25"/>
<rect x="200" y="-11.9576" width="7.02825" height="21.0848" transform="rotate(-45 200 -11.9576)" fill="black" fill-opacity="0.25"/>
<rect x="223.043" y="15.0001" width="7.02825" height="21.0848" transform="rotate(-135 223.043 15.0001)" fill="black" fill-opacity="0.25"/>
</g>
<mask id="mask12_2077_7867" style="mask-type:alpha" maskUnits="userSpaceOnUse" x="200" y="0" width="150" height="280">
<rect x="200" width="150" height="280" fill="black" fill-opacity="0.25"/>
</mask>
<g mask="url(#mask12_2077_7867)">
<rect x="200" y="88.0424" width="7.02825" height="21.0848" transform="rotate(-45 200 88.0424)" fill="black" fill-opacity="0.25"/>
<rect x="223.043" y="115" width="7.02825" height="21.0848" transform="rotate(-135 223.043 115)" fill="black" fill-opacity="0.25"/>
<rect x="249.999" y="91.9578" width="7.02825" height="21.0848" transform="rotate(135 249.999 91.9578)" fill="black" fill-opacity="0.25"/>
<rect x="226.957" y="65" width="7.02825" height="21.0848" transform="rotate(45 226.957 65)" fill="black" fill-opacity="0.25"/>
<rect x="300" y="88.0424" width="7.02825" height="21.0848" transform="rotate(-45 300 88.0424)" fill="black" fill-opacity="0.25"/>
<rect x="323.043" y="115" width="7.02825" height="21.0848" transform="rotate(-135 323.043 115)" fill="black" fill-opacity="0.25"/>
<rect x="349.999" y="91.9578" width="7.02825" height="21.0848" transform="rotate(135 349.999 91.9578)" fill="black" fill-opacity="0.25"/>
<rect x="326.957" y="65" width="7.02825" height="21.0848" transform="rotate(45 326.957 65)" fill="black" fill-opacity="0.25"/>
<rect x="250" y="38.0424" width="7.02825" height="21.0848" transform="rotate(-45 250 38.0424)" fill="black" fill-opacity="0.25"/>
<rect x="273.043" y="65.0001" width="7.02825" height="21.0848" transform="rotate(-135 273.043 65.0001)" fill="black" fill-opacity="0.25"/>
<rect x="299.999" y="41.9578" width="7.02825" height="21.0848" transform="rotate(135 299.999 41.9578)" fill="black" fill-opacity="0.25"/>
<rect x="276.957" y="15" width="7.02825" height="21.0848" transform="rotate(45 276.957 15)" fill="black" fill-opacity="0.25"/>
<rect x="200" y="-11.9576" width="7.02825" height="21.0848" transform="rotate(-45 200 -11.9576)" fill="black" fill-opacity="0.25"/>
<rect x="223.043" y="15.0001" width="7.02825" height="21.0848" transform="rotate(-135 223.043 15.0001)" fill="black" fill-opacity="0.25"/>
<rect x="300" y="-11.9576" width="7.02825" height="21.0848" transform="rotate(-45 300 -11.9576)" fill="black" fill-opacity="0.25"/>
<rect x="323.043" y="15.0001" width="7.02825" height="21.0848" transform="rotate(-135 323.043 15.0001)" fill="black" fill-opacity="0.25"/>
</g>
<mask id="mask13_2077_7867" style="mask-type:alpha" maskUnits="userSpaceOnUse" x="300" y="0" width="150" height="280">
<rect x="300" width="150" height="280" fill="black" fill-opacity="0.25"/>
</mask>
<g mask="url(#mask13_2077_7867)">
<rect x="300" y="88.0424" width="7.02825" height="21.0848" transform="rotate(-45 300 88.0424)" fill="black" fill-opacity="0.25"/>
<rect x="323.043" y="115" width="7.02825" height="21.0848" transform="rotate(-135 323.043 115)" fill="black" fill-opacity="0.25"/>
<rect x="349.999" y="91.9578" width="7.02825" height="21.0848" transform="rotate(135 349.999 91.9578)" fill="black" fill-opacity="0.25"/>
<rect x="326.957" y="65" width="7.02825" height="21.0848" transform="rotate(45 326.957 65)" fill="black" fill-opacity="0.25"/>
<rect x="400" y="88.0424" width="7.02825" height="21.0848" transform="rotate(-45 400 88.0424)" fill="black" fill-opacity="0.25"/>
<rect x="423.043" y="115" width="7.02825" height="21.0848" transform="rotate(-135 423.043 115)" fill="black" fill-opacity="0.25"/>
<rect x="449.999" y="91.9578" width="7.02825" height="21.0848" transform="rotate(135 449.999 91.9578)" fill="black" fill-opacity="0.25"/>
<rect x="426.957" y="65" width="7.02825" height="21.0848" transform="rotate(45 426.957 65)" fill="black" fill-opacity="0.25"/>
<rect x="350" y="38.0424" width="7.02825" height="21.0848" transform="rotate(-45 350 38.0424)" fill="black" fill-opacity="0.25"/>
<rect x="373.043" y="65.0001" width="7.02825" height="21.0848" transform="rotate(-135 373.043 65.0001)" fill="black" fill-opacity="0.25"/>
<rect x="399.999" y="41.9578" width="7.02825" height="21.0848" transform="rotate(135 399.999 41.9578)" fill="black" fill-opacity="0.25"/>
<rect x="376.957" y="15" width="7.02825" height="21.0848" transform="rotate(45 376.957 15)" fill="black" fill-opacity="0.25"/>
<rect x="300" y="-11.9576" width="7.02825" height="21.0848" transform="rotate(-45 300 -11.9576)" fill="black" fill-opacity="0.25"/>
<rect x="323.043" y="15.0001" width="7.02825" height="21.0848" transform="rotate(-135 323.043 15.0001)" fill="black" fill-opacity="0.25"/>
<rect x="400" y="-11.9576" width="7.02825" height="21.0848" transform="rotate(-45 400 -11.9576)" fill="black" fill-opacity="0.25"/>
<rect x="423.043" y="15.0001" width="7.02825" height="21.0848" transform="rotate(-135 423.043 15.0001)" fill="black" fill-opacity="0.25"/>
</g>
<mask id="mask14_2077_7867" style="mask-type:alpha" maskUnits="userSpaceOnUse" x="400" y="0" width="150" height="280">
<rect x="400" width="150" height="280" fill="black" fill-opacity="0.25"/>
</mask>
<g mask="url(#mask14_2077_7867)">
<rect x="400" y="88.0424" width="7.02825" height="21.0848" transform="rotate(-45 400 88.0424)" fill="black" fill-opacity="0.25"/>
<rect x="423.043" y="115" width="7.02825" height="21.0848" transform="rotate(-135 423.043 115)" fill="black" fill-opacity="0.25"/>
<rect x="449.999" y="91.9578" width="7.02825" height="21.0848" transform="rotate(135 449.999 91.9578)" fill="black" fill-opacity="0.25"/>
<rect x="426.957" y="65" width="7.02825" height="21.0848" transform="rotate(45 426.957 65)" fill="black" fill-opacity="0.25"/>
<rect x="500" y="88.0424" width="7.02825" height="21.0848" transform="rotate(-45 500 88.0424)" fill="black" fill-opacity="0.25"/>
<rect x="523.043" y="115" width="7.02825" height="21.0848" transform="rotate(-135 523.043 115)" fill="black" fill-opacity="0.25"/>
<rect x="549.999" y="91.9578" width="7.02825" height="21.0848" transform="rotate(135 549.999 91.9578)" fill="black" fill-opacity="0.25"/>
<rect x="526.957" y="65" width="7.02825" height="21.0848" transform="rotate(45 526.957 65)" fill="black" fill-opacity="0.25"/>
<rect x="450" y="38.0424" width="7.02825" height="21.0848" transform="rotate(-45 450 38.0424)" fill="black" fill-opacity="0.25"/>
<rect x="473.043" y="65.0001" width="7.02825" height="21.0848" transform="rotate(-135 473.043 65.0001)" fill="black" fill-opacity="0.25"/>
<rect x="499.999" y="41.9578" width="7.02825" height="21.0848" transform="rotate(135 499.999 41.9578)" fill="black" fill-opacity="0.25"/>
<rect x="476.957" y="15" width="7.02825" height="21.0848" transform="rotate(45 476.957 15)" fill="black" fill-opacity="0.25"/>
<rect x="400" y="-11.9576" width="7.02825" height="21.0848" transform="rotate(-45 400 -11.9576)" fill="black" fill-opacity="0.25"/>
<rect x="423.043" y="15.0001" width="7.02825" height="21.0848" transform="rotate(-135 423.043 15.0001)" fill="black" fill-opacity="0.25"/>
<rect x="500" y="-11.9576" width="7.02825" height="21.0848" transform="rotate(-45 500 -11.9576)" fill="black" fill-opacity="0.25"/>
<rect x="523.043" y="15.0001" width="7.02825" height="21.0848" transform="rotate(-135 523.043 15.0001)" fill="black" fill-opacity="0.25"/>
</g>
<mask id="mask15_2077_7867" style="mask-type:alpha" maskUnits="userSpaceOnUse" x="500" y="0" width="150" height="280">
<rect x="500" width="150" height="280" fill="black" fill-opacity="0.25"/>
</mask>
<g mask="url(#mask15_2077_7867)">
<rect x="500" y="88.0424" width="7.02825" height="21.0848" transform="rotate(-45 500 88.0424)" fill="black" fill-opacity="0.25"/>
<rect x="523.043" y="115" width="7.02825" height="21.0848" transform="rotate(-135 523.043 115)" fill="black" fill-opacity="0.25"/>
<rect x="549.999" y="91.9578" width="7.02825" height="21.0848" transform="rotate(135 549.999 91.9578)" fill="black" fill-opacity="0.25"/>
<rect x="526.957" y="65" width="7.02825" height="21.0848" transform="rotate(45 526.957 65)" fill="black" fill-opacity="0.25"/>
<rect x="600" y="88.0424" width="7.02825" height="21.0848" transform="rotate(-45 600 88.0424)" fill="black" fill-opacity="0.25"/>
<rect x="623.043" y="115" width="7.02825" height="21.0848" transform="rotate(-135 623.043 115)" fill="black" fill-opacity="0.25"/>
<rect x="649.999" y="91.9578" width="7.02825" height="21.0848" transform="rotate(135 649.999 91.9578)" fill="black" fill-opacity="0.25"/>
<rect x="626.957" y="65" width="7.02825" height="21.0848" transform="rotate(45 626.957 65)" fill="black" fill-opacity="0.25"/>
<rect x="550" y="38.0424" width="7.02825" height="21.0848" transform="rotate(-45 550 38.0424)" fill="black" fill-opacity="0.25"/>
<rect x="573.043" y="65.0001" width="7.02825" height="21.0848" transform="rotate(-135 573.043 65.0001)" fill="black" fill-opacity="0.25"/>
<rect x="599.999" y="41.9578" width="7.02825" height="21.0848" transform="rotate(135 599.999 41.9578)" fill="black" fill-opacity="0.25"/>
<rect x="576.957" y="15" width="7.02825" height="21.0848" transform="rotate(45 576.957 15)" fill="black" fill-opacity="0.25"/>
<rect x="500" y="-11.9576" width="7.02825" height="21.0848" transform="rotate(-45 500 -11.9576)" fill="black" fill-opacity="0.25"/>
<rect x="523.043" y="15.0001" width="7.02825" height="21.0848" transform="rotate(-135 523.043 15.0001)" fill="black" fill-opacity="0.25"/>
<rect x="600" y="-11.9576" width="7.02825" height="21.0848" transform="rotate(-45 600 -11.9576)" fill="black" fill-opacity="0.25"/>
<rect x="623.043" y="15.0001" width="7.02825" height="21.0848" transform="rotate(-135 623.043 15.0001)" fill="black" fill-opacity="0.25"/>
</g>
<mask id="mask16_2077_7867" style="mask-type:alpha" maskUnits="userSpaceOnUse" x="600" y="0" width="150" height="280">
<rect x="600" width="150" height="280" fill="black" fill-opacity="0.25"/>
</mask>
<g mask="url(#mask16_2077_7867)">
<rect x="600" y="88.0424" width="7.02825" height="21.0848" transform="rotate(-45 600 88.0424)" fill="black" fill-opacity="0.25"/>
<rect x="623.043" y="115" width="7.02825" height="21.0848" transform="rotate(-135 623.043 115)" fill="black" fill-opacity="0.25"/>
<rect x="649.999" y="91.9578" width="7.02825" height="21.0848" transform="rotate(135 649.999 91.9578)" fill="black" fill-opacity="0.25"/>
<rect x="626.957" y="65" width="7.02825" height="21.0848" transform="rotate(45 626.957 65)" fill="black" fill-opacity="0.25"/>
<rect x="650" y="38.0424" width="7.02825" height="21.0848" transform="rotate(-45 650 38.0424)" fill="black" fill-opacity="0.25"/>
<rect x="673.043" y="65.0001" width="7.02825" height="21.0848" transform="rotate(-135 673.043 65.0001)" fill="black" fill-opacity="0.25"/>
<rect x="699.999" y="41.9578" width="7.02825" height="21.0848" transform="rotate(135 699.999 41.9578)" fill="black" fill-opacity="0.25"/>
<rect x="676.957" y="15" width="7.02825" height="21.0848" transform="rotate(45 676.957 15)" fill="black" fill-opacity="0.25"/>
<rect x="600" y="-11.9576" width="7.02825" height="21.0848" transform="rotate(-45 600 -11.9576)" fill="black" fill-opacity="0.25"/>
<rect x="623.043" y="15.0001" width="7.02825" height="21.0848" transform="rotate(-135 623.043 15.0001)" fill="black" fill-opacity="0.25"/>
</g>
</g>
</svg>
